<?xml version="1.0" encoding="utf-8" ?>
<svg xmlns="http://www.w3.org/2000/svg" xmlns:xlink="http://www.w3.org/1999/xlink" width="1001" height="501">
	<path fill="#040402" transform="matrix(0.48877 0 0 0.489258 -6.10352e-05 0)" d="M1817.64 318.499C1825.7 317.377 1835.68 318.196 1843.71 319.656C1853.75 321.479 1862.55 325.466 1868.43 334.121C1876.06 345.349 1878.38 364.792 1875.64 378.017C1874.29 384.529 1871.85 388.926 1866.23 392.554C1871.07 394.687 1875.96 396.791 1880.72 399.109C1887.19 402.265 1893.32 406.803 1896.3 413.577C1901.31 424.979 1902.46 439.94 1904.2 452.262C1907.73 477.244 1910.17 505.528 1917.47 529.545C1921.78 543.728 1930.09 556.926 1937.15 569.888C1945.43 585.063 1953.13 600.557 1958.71 616.954C1961.71 625.757 1964.54 635.719 1960.03 644.525C1957.32 649.802 1951.78 654.493 1946.06 656.146C1937.56 658.607 1929.7 653.068 1922.63 649.085C1922.71 649.19 1922.79 649.292 1922.86 649.401C1922.97 649.581 1923.08 649.769 1923.19 649.951C1927.3 656.613 1925.96 669.469 1928.02 677.458C1931.65 691.522 1936.15 705.519 1940.12 719.509C1944.04 733.333 1947.49 747.489 1952.18 761.061C1955.57 770.875 1967.14 788.306 1965.8 798.396C1962.78 801.595 1959.26 802.588 1955.06 803.524C1941.56 806.529 1880.72 810.994 1870.65 803.114C1868.01 801.051 1868.4 798.523 1868.11 795.496L1869.33 793.459C1867 790.084 1816.51 796.001 1802.47 786.247C1801.2 783.881 1800.51 782.806 1801.35 780.03C1804.72 768.924 1836.8 769.486 1848.08 763.564L1848.88 763.138C1850.39 759.445 1832.11 686.438 1829.84 676.73C1822.82 646.798 1830.65 627.407 1833.51 597.98C1836.02 572.094 1836.88 546.558 1834.59 520.603C1833.79 511.529 1833.48 500.246 1830.34 491.726C1828.34 490.586 1823.89 489.673 1821.42 488.634C1815.51 486.146 1810.13 492.474 1804.8 494.459C1796.76 497.458 1790.45 495.224 1783.05 491.806C1780.94 477.68 1774.28 462.651 1770.29 448.774C1766.95 437.172 1764.86 424.327 1760.76 413.058C1760.25 411.641 1759.42 410.427 1758.49 409.245C1757.62 411.078 1753.89 413.685 1752.08 414.592C1750.16 415.553 1747.29 415.447 1745.34 414.617C1742.92 413.583 1742.49 412.598 1741.53 410.342C1743.18 399.03 1784.62 388.194 1796.65 373.011C1800.95 373.086 1805.54 374.389 1809.76 373.364C1809.93 372.934 1809.97 372.845 1810.11 372.351C1811.55 367.007 1806.33 337.007 1803.57 332.382C1808.88 328.737 1813.71 323.598 1817.64 318.499ZM1879.62 575.499C1875.12 580.047 1863.72 581.342 1857.62 582.703C1863.15 586.639 1864.76 594.544 1869.89 597.502L1871.5 596.856C1872.06 594.554 1872.48 592.174 1873.62 590.081C1875.81 591.634 1876.48 593.078 1876.97 595.746C1878.9 606.141 1878.36 617.433 1879.33 628.002C1880.73 643.186 1888.18 704.35 1898.9 712.603C1899.43 713.013 1900.1 713.011 1900.75 713.136C1908.24 713.338 1922.14 715.037 1928.04 709.366C1929.31 708.145 1929.67 707.334 1929.64 705.511C1929.43 695.512 1923.87 683.785 1921.48 673.972C1919.04 663.92 1920.95 653.284 1918.67 643.485C1915.75 630.982 1892.07 584.823 1883.26 575.757C1882.04 575.592 1880.85 575.381 1879.62 575.499ZM1839.81 585.499C1843.17 598.59 1832.39 639.288 1832.61 656.908C1832.79 670.703 1840.37 683.731 1839.54 697.512C1847.15 698.833 1860.9 702.722 1867.74 698.03C1868.53 697.488 1868.72 696.493 1869.08 695.622L1867.6 691.494C1871.97 684.643 1863.82 668.046 1864.54 659.344C1865.81 644.142 1875.48 627.247 1872.13 611.992C1871.7 610.025 1871.18 608.628 1869.79 607.113C1864.65 606.319 1862.14 611.625 1856.57 609.395L1855.53 607.42C1856.44 605.715 1860.17 602.977 1859.61 601.528C1858.98 599.894 1857.27 598.928 1856.5 597.48C1854.39 593.551 1857.25 588.496 1853.29 584.704C1848.92 583.749 1844.18 584.864 1839.81 585.499ZM1864.52 400.499C1858.82 407.685 1849.61 412.485 1840.84 414.849C1845.77 418.491 1849.17 426.272 1850.84 432.037C1851.02 431.932 1851.21 431.832 1851.39 431.723C1857.51 428.052 1863.27 417.687 1869.87 416.045C1870.4 417.975 1869.72 419.718 1868.8 421.427C1865.47 427.63 1856.97 438.567 1850.7 441.912C1855.4 447.226 1860.46 452.516 1864.31 458.501C1864.41 458.383 1864.52 458.266 1864.62 458.146C1869.92 451.808 1877.38 432.238 1885.06 429.805C1885.77 430.469 1886.33 430.616 1886.37 431.634C1886.69 439.007 1881.18 445.872 1876.21 450.848C1875.54 451.515 1874.75 452.035 1873.93 452.502C1873.35 455.197 1871.49 456.888 1869.69 458.84C1878.93 471.531 1904.52 503.969 1907.56 517.751C1907.61 517.989 1907.68 518.225 1907.73 518.463C1908.52 516.512 1908.97 514.627 1908.77 512.508C1907.74 501.598 1904.38 490.541 1902.5 479.716C1899.1 460.131 1898.62 434.411 1891.13 416.324C1890.4 414.576 1889.32 413.062 1888.1 411.633C1885.77 406.854 1877.09 403.615 1872.34 402.005C1869.76 401.129 1867.28 400.318 1864.52 400.499ZM1835.54 490.498C1838.03 507.774 1848.1 567.045 1838.8 579.67C1850.16 579.057 1861.83 577.741 1872.2 572.58C1875.02 571.94 1878.58 571.635 1880.7 569.563C1878.72 561.027 1846.26 494.238 1841.51 489.986C1839.34 489.765 1837.66 489.984 1835.54 490.498ZM1928.33 715.499C1920.09 721.202 1908 719.801 1898.56 718.829C1903.39 724.03 1920.12 770.041 1920.45 777.706C1926.74 779.722 1941.02 780.853 1947.12 777.895C1947.94 777.501 1948.61 776.925 1949.22 776.273C1949.82 767.861 1937.7 722.58 1932.38 716.483C1931.39 715.352 1929.78 715.625 1928.33 715.499ZM1873.03 642.496C1872.15 651.83 1870.51 660.792 1871.51 670.227C1872.87 683.135 1876.16 696.272 1878.48 709.078C1881.1 723.568 1882.96 738.344 1886.28 752.688C1887.63 758.57 1896.06 779.397 1893.96 784.06C1898.33 783.459 1903.18 783.199 1907.21 781.342C1910.29 780.67 1912.01 780.85 1914.06 778.385C1913.33 766.872 1906.86 755.312 1902.92 744.567C1896.81 727.887 1889.98 710.367 1885.26 693.29C1882.42 682.993 1878.55 649.015 1875.38 643.099L1873.03 642.496ZM1794.52 380.499C1789.89 387.443 1792.38 394.254 1793.9 401.936C1796.94 417.249 1813.06 475.778 1822.61 484.376C1826.85 486.308 1831.12 485.543 1835.37 483.975C1841.51 481.71 1848.7 474.99 1851.88 469.229C1852.19 468.672 1852.19 468.463 1852.29 467.909C1852.91 467.218 1854.34 466.08 1854.28 465.17C1853.99 460.74 1849.56 456.378 1846.26 453.787C1845.33 453.053 1844.28 452.484 1843.21 451.989C1842.49 457.131 1835.33 465.437 1831.1 468.474Q1830.2 469.127 1829.22 469.661C1827.55 469.168 1827.39 468.906 1826.51 467.351C1823.91 462.753 1824.31 455.887 1822.26 450.729C1816.44 436.097 1806.57 421.364 1803.24 406.062C1801.08 396.134 1806.71 391.43 1802.27 381.108C1799.49 380.272 1797.37 380.296 1794.52 380.499ZM1865.41 704.499C1856.47 707.295 1849.06 705.717 1840 704.619C1849.98 714.606 1850.97 757.885 1857.2 764.971C1863.87 766.425 1873.82 768.406 1879.85 764.281C1880.82 763.617 1881.21 762.963 1881.7 761.928C1879.71 749.164 1876.41 713.945 1871.34 704.423C1869.15 703.89 1867.61 704.049 1865.41 704.499ZM1853.31 475.499C1855.65 487.094 1940.08 617.355 1953.93 631.482L1955.26 631.866C1956.34 629.238 1956.29 628.596 1955.16 625.928C1948.37 609.89 1934.79 594.426 1925.24 579.767Q1899.63 540.208 1875.72 499.598C1872.53 494.302 1863.77 477.983 1858.93 475.082C1856.85 474.871 1855.32 474.939 1853.31 475.499ZM1827.35 347.499C1824.44 348.592 1819.39 349.259 1817.44 351.382C1817.47 359.832 1816.08 372.497 1819.75 380.093C1821.83 381.249 1822.39 381.316 1824.83 380.734C1827.3 380.145 1828.2 379.054 1830.88 379.651C1829.95 381.23 1829.18 382.758 1828.52 384.465C1830.21 386.228 1831.03 386.067 1833.38 386.484C1836.63 385.239 1841.34 382.761 1844.77 383.411L1845.45 385.185Q1842.55 387.744 1839.68 390.347C1839.75 391.576 1839.59 391.866 1840.33 392.899C1841.67 393.114 1843.24 393.625 1844.5 392.987C1848.65 395.825 1852.11 398.715 1857.03 400.121L1858.94 399.665C1859.34 395.622 1851 382.18 1848.17 378.726C1845.32 375.241 1841.5 374.899 1837.33 374.031C1839.48 368.098 1840.55 357.311 1837.82 351.496C1837.01 349.77 1835.72 348.189 1833.91 347.468C1831.77 346.614 1829.52 347.032 1827.35 347.499ZM1764.45 407.494C1764.54 407.691 1764.62 407.887 1764.7 408.086C1770.53 422.651 1781.15 484.997 1794.9 490.492C1797.08 491.362 1799.01 491.45 1801.2 490.473C1804.22 489.128 1808.9 485.071 1810.21 482.086C1810.3 481.895 1810.34 481.687 1810.4 481.488C1811.77 478.138 1811.65 476.587 1810.2 473.232C1808.8 470.018 1807.12 467.089 1804.7 464.544C1803.29 469.725 1799.42 473.32 1795.06 476.204C1796 471.598 1791.6 464.002 1789.63 459.739C1785.79 451.414 1781.64 443.126 1778.53 434.494C1775.7 426.656 1773.91 415.418 1769.81 408.457C1769.64 408.156 1769.24 407.678 1769.04 407.436C1767.52 407.433 1765.97 407.365 1764.45 407.494ZM1781.16 399.499C1778.47 401.076 1776.05 402.412 1773.04 403.298C1774.76 405.805 1796.96 461.61 1796.96 462.502L1800.19 463.788C1802.09 462.793 1802.58 462.765 1803.25 460.606C1804.52 456.489 1790.83 405.74 1787.86 400.493C1787.67 400.154 1787.23 399.633 1787.02 399.361C1784.96 399.166 1783.2 399.159 1781.16 399.499ZM1814.56 385.499C1809.65 390.519 1809.21 396.423 1809.46 403.458C1809.66 409.086 1811.97 418.49 1816.49 422.294C1816.99 422.715 1817.54 423.027 1818.12 423.316L1819.84 422.731C1820.39 421.353 1821.12 419.919 1821.24 418.43C1825.62 415.678 1828.31 407.278 1831.44 403.004C1832.53 401.525 1835.29 399.494 1835.83 397.921C1835.88 397.789 1835.89 397.646 1835.92 397.509C1832.89 392.843 1822.73 386.674 1817.28 385.716C1816.36 385.554 1815.49 385.511 1814.56 385.499ZM1879.9 770.5C1869.38 777.489 1826.96 771.168 1819.09 777.625C1821.23 779.145 1823.24 779.547 1825.74 780.062C1836.04 780.53 1879.74 783.237 1885.73 777.947C1886.48 775.786 1887.03 774.498 1885.87 772.274C1885.47 771.496 1884.67 770.796 1884.03 770.202C1882.66 770.284 1881.26 770.316 1879.9 770.5ZM1920.58 785.499C1920.33 785.713 1920.1 785.937 1919.84 786.141C1915.37 789.718 1904.76 787.71 1899.31 791.076C1899.51 791.902 1899.4 792.643 1900.17 793.103C1906.69 797.039 1912.82 793.693 1918.18 795.104C1923.83 795.905 1933.45 796.182 1938.4 793.029L1939.13 791.27C1937.19 788.092 1934.74 787.074 1931.13 786.204C1927.56 785.342 1924.23 784.992 1920.58 785.499Z"/>
	<path fill="#040402" transform="matrix(0.48877 0 0 0.489258 -6.10352e-05 0)" d="M346.547 418.875C346.977 399.631 345.758 380.205 345.098 360.962Q343.428 305.855 340.74 250.789C339.995 232.228 338.404 213.109 338.984 194.556C339.13 189.863 339.276 182.363 342.108 178.579C360.628 175.57 379.124 176.682 397.791 176.891L454.462 177.006L686.152 176.859L1380.41 176.601L1561.62 176.452C1605 176.616 1648.88 177.687 1692.23 176.099C1697.94 175.89 1705.38 175.055 1710.33 178.489C1712.63 180.09 1713.7 182.947 1714.05 185.638C1715.94 200.242 1712.9 217.556 1711.71 232.329Q1709.35 262.1 1707.52 291.907L1697.88 438.737C1696.27 465.953 1695.82 493.368 1693.45 520.512C1693.09 524.655 1692.65 528.551 1690.17 532.025C1694.94 531.371 1703.31 531.487 1706.51 528.013C1706.65 523.279 1705.5 517.914 1707.64 513.74L1709.72 513.19C1711.73 514.959 1712.19 516.238 1712.35 518.959C1712.52 521.834 1712.29 525.242 1711.29 527.949C1728.26 524.885 1767.2 518.322 1781.78 528.233C1783.67 529.524 1785.24 531.352 1785.64 533.667C1786.14 536.584 1784.75 539.413 1782.98 541.639C1770.85 556.924 1729.25 565.841 1710.8 567.837C1713.97 573.729 1712.05 668.343 1709.03 677.478C1708.71 678.455 1708.19 679.322 1707.67 680.199C1720.49 680.119 1786.84 677.408 1793.48 681.293L1795.11 683.487C1794.58 685.659 1794.41 686.157 1792.33 687.358C1787.14 690.354 1718.21 689.714 1706.92 689.703C1710.83 696.281 1707.5 741.462 1705.47 749.452C1705.14 750.775 1704.43 751.94 1703.63 753.031C1714.15 755.726 1737.05 768.825 1742.71 778.225C1743.09 778.853 1743.39 779.472 1743.67 780.147L1743 781.108C1727.53 780.229 1714.52 763.172 1698.97 759.908C1693.92 765.648 1669.63 778.623 1661.89 779.325C1660.56 779.445 1659.46 779.205 1658.25 778.698C1657.96 777.294 1657.7 777.11 1658.53 775.92C1665.94 765.358 1691.2 762.04 1696.36 750.961C1700.61 745.544 1701.28 701.286 1699.95 693.033C1699.76 691.877 1699.24 690.825 1698.63 689.839Q1689.87 690.365 1681.12 691.12C1682.91 694.458 1684.89 702.088 1683.78 705.876C1682.77 709.355 1680.12 711.566 1676.97 713.071C1667.08 717.8 1653.44 716.459 1642.72 716.34C1646.2 722.442 1644.9 731.91 1643.13 738.407C1641.28 745.186 1638.48 751.999 1633 756.589C1643.54 762.225 1652.8 780.134 1657.24 791.036L1656.78 793.044C1654.53 794.024 1654.18 794.116 1651.76 793.718C1641.2 786.913 1639.85 769.878 1629.05 763.749C1626.88 771.272 1618.22 777.813 1611.62 781.443C1589.26 793.744 1560.54 796.58 1536.15 789.294C1513.92 782.655 1504.46 764.43 1493.02 759.927C1491.71 768.967 1477.62 779.755 1470.42 785.024C1469.38 785.783 1468.25 786.367 1467.08 786.893L1466.38 785.674C1469.02 777.737 1484.35 762.762 1483.91 756.99C1482.65 751.228 1457.01 729.836 1451.39 726.214C1448.95 724.642 1447.03 723.803 1444.12 724.459C1435.16 735.655 1423.03 754.271 1411.36 761.883L1409.49 762.031C1408.51 759.136 1410.06 755.252 1411.42 752.624C1415.69 744.382 1432.8 732.988 1433.34 723.946C1421.39 724.585 1409.55 724.732 1397.58 724.586C1402.65 731.749 1402.06 781.29 1400.19 791.485C1399.96 792.78 1399.55 793.963 1399.04 795.173C1398.94 795.396 1398.86 795.622 1398.76 795.843C1398.7 795.976 1398.63 796.104 1398.56 796.235C1411.63 798.438 1457.7 816.213 1465.02 825.702L1464.51 827.229C1447.78 831.621 1413.7 801.126 1396.14 804.722C1379.41 808.147 1353.74 848.089 1338.93 842.745L1338.24 841.368C1345.44 826.926 1385.32 808.257 1390.17 796.875C1394.61 790.669 1392.66 739.162 1391.15 729.75C1390.87 727.981 1390.39 726.464 1389.31 725.031Q1359.79 726.17 1330.25 726.365C1334.83 735.617 1335.19 759.135 1331.99 768.953C1331.65 769.992 1331.17 770.96 1330.6 771.892C1341.7 773.917 1362.35 778.471 1370.11 787.154L1369.59 788.232C1355.74 789.609 1342.29 781.9 1328.8 779.948C1326.16 785.487 1295.67 802.526 1288.67 805.059C1287.08 805.633 1285.75 806.055 1284.06 805.717C1283.69 804.581 1283.47 804.418 1284.01 803.336C1289.19 792.881 1320.34 782.108 1323.25 774.46C1325.45 769.814 1325.2 733.558 1323.13 728.352C1322.87 727.696 1322.55 727.082 1322.19 726.48C1259.49 726.098 1196.7 727.35 1134 727.808C931.067 729.293 728 732.029 525.214 723.287C487.003 721.64 448.723 721.755 410.525 719.755C394.386 718.91 376.823 718.74 361.066 714.969C358.108 708.075 356.746 701.256 356.025 693.801C342.926 694.932 316.777 699.132 306.272 691.06L305.852 689.147C309.156 685.461 316.377 684.888 321.044 684.624C332.664 683.968 344.499 684.465 356.133 684.753Q356.529 619.757 353.723 554.82C352.389 521.791 349.709 488.225 349.97 455.186C344.398 456.65 337.194 457.805 332.226 460.698C319.923 467.863 265.534 512.566 259.378 522.974C258.243 524.891 257.628 527.422 258.349 529.592C259.106 531.871 260.625 533.067 262.832 533.965C271.213 537.376 283.726 532.082 289.505 540.582C289.921 543.931 289.399 546.733 287.362 549.443C284.179 553.681 278.985 555.838 274.387 558.137C250.277 570.191 246.402 583.197 249.481 608.74C252.193 631.232 260.031 653.056 262.278 675.473C265.313 705.75 245.308 769.849 237.655 802.642C250.886 803.149 279.582 802.064 289.056 812.021C291.117 814.187 291.74 816.981 291.609 819.883C291.489 822.548 290.922 824.553 289.364 826.766C276.274 835.945 220.302 834.782 205.188 832.056C201.592 831.407 194.81 830.156 192.437 827.143C190.759 825.011 190.649 822.225 191.177 819.667C192.943 811.109 196.931 802.985 198.779 794.399C203.477 772.568 211.925 706.11 209.56 685.42C207.742 669.514 202.263 653.502 197.775 638.164C193.636 658.721 193.621 687.44 188.301 705.08C184.59 717.384 177.286 728.774 171.444 740.161C158.521 765.347 144.368 790.818 133.577 816.969C145.195 818.691 172.522 819.86 180.05 829.906C182.344 832.968 184.204 838.953 184.015 842.77C182.239 845.573 180.571 846.389 177.316 847.088C158.883 851.044 101.408 843.969 86.1176 834.291C84.3914 833.198 82.9707 831.895 82.4889 829.894C87.0839 815.199 94.9214 801.832 100.59 787.531C107.549 769.973 112.593 751.092 120.485 734.002C120.641 728.328 133.286 703.691 135.103 692.116C139.385 664.833 133.95 635.966 139.159 608.541C130.517 602.184 126.138 594.93 124.515 584.206C121.252 562.656 132.108 520.978 136.667 498.834C130.519 490.608 124.78 482.267 119.197 473.653C124.706 448.56 139.248 400.594 161.338 386.809C165.737 384.064 171.036 382.495 175.913 380.803C175.979 360.295 173.881 309.357 188.953 294.436C195.206 288.245 202.788 290.21 210.476 288.354C216.03 287.014 220.593 284.134 226.576 284.192C232.335 284.248 237.347 286.619 241.297 290.753C245.27 294.912 247.609 300.365 248.733 305.952C251.396 319.184 249.908 334.308 249.943 347.858C249.977 360.865 250.496 373.868 250.539 386.871C261.924 396.091 263.074 412.223 267.121 425.507C268.795 430.999 271.241 436.238 273.731 441.399C291.37 438.917 307.635 439.236 322.259 427.675L334.548 427.107L346.547 418.875ZM985.168 185.5L493.305 187.011C444.74 187.184 396.175 185.046 347.617 186.087Q352.109 259.739 353.966 333.504C354.52 356.749 353.281 380.482 355.058 403.603C355.385 407.856 356.248 411.215 357.782 415.193C361.417 406.542 359.441 396.579 362.97 388.63C367.243 387.26 368.968 382.132 370.742 382.595L372.448 386.294C374.076 386.748 374.177 386.988 375.751 386.193C376.305 384.103 376.359 381.737 378.415 380.62C383.25 377.994 390.319 379.701 395.591 378.46C398.601 377.752 401.121 375.41 404.139 374.904C405.782 374.629 407.547 375.185 409.076 375.754C414.021 377.595 423.642 382.108 425.487 387.315C426.22 389.384 426.092 390.892 425.077 392.791C423.175 396.347 417.321 398.783 413.587 399.686C409.037 400.786 404.214 400.543 399.591 401.112C395.258 405.147 391.629 409.884 387.164 413.718C377.634 421.904 366.05 429.111 358.164 438.974C360.47 491.788 363.474 544.805 364.475 597.645L365.538 665.656C365.792 679.526 365.282 694.108 367.674 707.784C421.753 708.918 475.596 712.22 529.616 714.496C572.608 716.307 615.753 717.109 658.779 717.987Q805.809 720.845 952.866 720.278C987.203 720.173 1021.55 719.039 1055.87 719.087C1085.44 719.127 1115.02 719.952 1144.58 719.839Q1197.64 719.206 1250.68 717.956L1298.28 717.259C1305.99 717.15 1314.43 717.727 1322.05 716.643C1324 713.423 1323.83 710.005 1323.87 706.37C1324.05 689.401 1322.68 672.477 1322.24 655.526C1321.53 628.428 1321.47 601.289 1321.06 574.183C1320.77 555.24 1323.85 510.462 1319.68 494.014C1319.29 492.456 1318.41 491.164 1317.48 489.877C1317.37 490.067 1317.26 490.26 1317.14 490.447C1312.19 498.28 1263.71 538.7 1255.44 539.862C1254.51 539.993 1253.7 539.914 1252.81 539.668C1252.32 537.483 1253.11 536.459 1254.31 534.634C1263.99 519.779 1294.1 502.176 1308.7 489.537C1316.16 483.08 1312.65 474.818 1319.54 472.983C1321.57 473.933 1323.38 475.441 1325.61 474.584C1339.35 469.319 1395.12 414.606 1404.78 418.008C1405.52 418.269 1406.21 418.916 1406.79 419.438L1406.95 421.203C1400.17 428.892 1366.43 455.959 1357.98 459.466C1352.78 466.64 1334.75 479.166 1326.48 482.516C1328.14 485.485 1328.28 488.257 1328.38 491.598C1329.84 538.679 1328.91 586.018 1329.74 633.152C1330.01 648.841 1333.82 702.543 1331.1 713.702C1330.85 714.74 1330.45 715.73 1330.02 716.7C1349.74 716.238 1370.46 717.021 1390.04 714.914C1391.29 713.028 1391.74 711.317 1391.91 709.068C1393.06 693.866 1391.71 677.978 1391.26 662.726C1390.53 638.319 1390.08 613.576 1391.02 589.173C1391.65 572.831 1404.36 562.503 1403.83 551.271C1400.65 544.339 1362.4 528.891 1350.32 501.633C1348.62 497.808 1346.68 492.561 1348.24 488.39C1349 486.377 1350.59 485.254 1352.53 484.496C1365.6 479.385 1411.85 498.335 1424.13 504.444C1441.85 513.255 1473.11 532.301 1479.91 552.186C1481.19 555.942 1481.08 560.012 1479.26 563.576C1477.27 567.493 1474.09 570.357 1469.84 571.563C1449.53 577.328 1427.81 558.094 1409.5 552.457C1412.58 563.317 1398.99 579.609 1398.55 591.747C1397.96 608.038 1403.12 706.226 1398.37 714.309C1398.2 714.597 1398.01 714.876 1397.84 715.159C1412.3 715.049 1426.72 714.98 1441.15 713.986C1446.11 705.476 1443.63 684.148 1441.1 674.916C1438.81 666.537 1434.26 659.248 1428.81 652.561C1436.41 642.436 1442.04 608.502 1444.19 594.767C1444.85 590.561 1445.05 581.621 1447.04 578.122C1447.79 576.808 1450.72 576.282 1452.19 576.072C1461.73 574.704 1474.06 575.351 1483.49 577.355C1494.94 565.962 1494.01 544.228 1503.25 530.892C1509.19 522.326 1521.91 519.865 1526.05 514.435C1526.02 514.256 1526 514.076 1525.96 513.898C1523.71 503.691 1507.59 500.272 1515.64 487.204C1519.81 480.43 1531.44 474.325 1532.02 466.42C1530.4 463.453 1527.57 460.795 1527.59 457.455C1528.96 455.151 1530.68 454.015 1533.26 453.418C1537.15 452.516 1541.36 452.132 1545.33 451.835L1546.03 451.441C1555.05 446.342 1562.75 438.357 1574.22 441.358C1577.24 442.15 1582.07 444.587 1583.76 447.271C1585.96 449.757 1589.15 453.462 1589 457.024C1593.6 458.228 1599.71 458.988 1602.38 463.317C1608.28 472.901 1604.52 497.602 1601.29 508.269C1599.31 514.772 1596.2 521.84 1591.95 527.167C1600.27 537.584 1603.55 554.363 1614.27 567.251C1617.22 570.798 1624.32 577.416 1624.39 582.22C1632.98 581.089 1641.42 580.151 1650.08 579.878C1651.88 577.286 1653.61 574.762 1655.03 571.939L1654.49 569.68C1649.28 566.7 1642.79 565.055 1640.45 559C1640.41 555.913 1641.58 553.97 1643.66 551.837C1655.18 540.064 1675.79 539.547 1682.06 534.04C1686.73 520.395 1687.22 469.537 1688.29 452.269L1700.11 266.791C1701.62 243.138 1706.01 213.935 1705.64 191.07C1705.62 189.458 1705.55 187.499 1704.76 186.07C1704.67 185.897 1704.53 185.75 1704.42 185.591L985.168 185.5ZM1557.09 650.5C1536.62 652.388 1518.19 661.841 1504.98 677.744C1494.7 690.116 1488.8 705.797 1490.35 722.007Q1490.52 723.695 1490.78 725.372Q1491.04 727.05 1491.37 728.713Q1491.71 730.375 1492.13 732.02Q1492.55 733.664 1493.05 735.286Q1493.55 736.907 1494.12 738.503Q1494.7 740.098 1495.36 741.663Q1496.01 743.228 1496.75 744.759Q1497.48 746.29 1498.28 747.784Q1499.09 749.277 1499.97 750.729Q1500.84 752.181 1501.79 753.588Q1502.74 754.995 1503.76 756.354Q1504.77 757.713 1505.85 759.021Q1506.94 760.329 1508.08 761.582Q1509.22 762.835 1510.43 764.03Q1511.63 765.225 1512.89 766.36Q1514.15 767.495 1515.47 768.567C1528.02 778.892 1548.31 787.567 1564.85 785.693C1565.32 785.64 1565.78 785.564 1566.24 785.485C1587.48 783.676 1607.86 777.838 1622.07 760.965Q1623.01 759.848 1623.9 758.686Q1624.79 757.524 1625.62 756.319Q1626.44 755.114 1627.21 753.869Q1627.98 752.624 1628.68 751.343Q1629.39 750.061 1630.02 748.746Q1630.66 747.432 1631.24 746.086Q1631.81 744.741 1632.32 743.369Q1632.82 741.997 1633.26 740.602Q1633.69 739.206 1634.06 737.791Q1634.43 736.375 1634.72 734.944Q1635.02 733.512 1635.24 732.067Q1635.46 730.622 1635.61 729.168Q1635.77 727.713 1635.84 726.253Q1635.92 724.793 1635.93 723.331Q1635.93 721.869 1635.87 720.409Q1635.8 718.948 1635.66 717.493C1633.77 698.144 1620.29 679.929 1605.49 668.007C1592.42 657.477 1574.06 649.742 1557.09 650.5ZM219.749 383.403C217.256 383.631 212.545 383.546 210.643 385.048C210.172 389.743 210.765 399.63 206.785 402.631C205.344 403.717 202.979 403.797 201.251 403.439C191.22 401.363 183.815 392.866 177.005 385.896C156.309 395.022 149.858 402.802 141.789 423.562L134.985 441.406C144.143 443.425 152.292 446.042 160.725 450.156C164.95 442.223 170.989 411.869 175.58 409.338C177.291 411.368 177.492 413.235 177.281 415.877C176.857 421.184 174.973 426.634 173.516 431.741C171.538 438.55 169.278 445.65 165.743 451.833C166.08 461.382 166.189 470.555 164.559 480.002C174.412 489.228 181.952 500.577 191.577 509.906C202.22 506.992 214.225 504.203 220.274 493.931Q220.954 492.772 221.502 491.546Q222.05 490.32 222.46 489.041Q222.869 487.762 223.136 486.445Q223.403 485.129 223.523 483.791C224.65 472.245 223.323 459.605 223.71 447.861C224.399 426.927 227.171 404.972 225.732 384.098L224.799 383.22L219.749 383.403ZM144.388 608.184L139.159 608.541C133.95 635.966 139.385 664.833 135.103 692.116C133.286 703.691 120.641 728.328 120.485 734.002C123.008 736.359 121.782 738.712 124.038 740.665C135.88 745.664 146.103 749.133 158.943 750.608C166.648 736.086 176.47 721.712 181.967 706.2C186.658 692.962 186.14 677.981 187.989 664.155C190.078 648.539 193.251 632.917 195.981 617.397C191.995 614.266 189.797 608.887 185.396 607.164C184.082 607.671 182.708 608.13 181.452 608.77C173.816 612.667 165.178 608.784 157.117 608.001C152.888 607.59 148.617 607.905 144.388 608.184ZM240.899 603.878C227.917 611.21 216.19 612.76 201.667 614.383C202.017 631.123 204.714 645.484 209.559 661.463C212.293 670.477 216.043 679.778 216.793 689.226C217.623 699.679 209.714 720.451 213.69 729.208L215.388 730.538C226.515 731.941 237.345 733.513 248.569 732.184C259.548 689.668 258.83 681.384 249.051 638.615C246.522 627.556 244.923 616.32 242.337 605.297L240.899 603.878ZM1524.56 522.499C1512.4 529.127 1506.32 535.868 1502.31 549.464C1499.75 558.11 1497.51 572.321 1490.91 578.651C1495.17 579.4 1499.86 579.853 1503.85 581.556C1504.04 581.413 1504.22 581.272 1504.4 581.126C1515.9 571.735 1513.59 551.463 1523.58 541.357L1524.81 541.635C1525.4 553.951 1519.16 565.557 1519.03 577.792C1519 580.252 1519.02 583.591 1518.26 585.93C1524.51 588.388 1539.61 593.994 1542.09 600.642C1543.23 603.693 1541.95 608.071 1540.44 610.822C1539.76 612.042 1538.96 613.191 1538.16 614.325L1538.2 616.2C1552.37 618.911 1568.11 616.621 1582.37 615.314C1582.36 615.172 1582.35 615.03 1582.33 614.889C1581.72 610.597 1577.27 607.493 1580.4 603.288C1582.13 600.959 1584.64 599.749 1585.24 596.73C1586.55 594.138 1586.7 591.796 1586.63 588.929C1586.57 586.207 1580.1 529.155 1579.68 527.825L1577.25 526.706C1575 527.58 1574.19 528.513 1573.23 530.786C1569.81 538.866 1568.66 555.543 1560.11 559.686C1557.84 560.786 1554.99 560.642 1552.69 559.74C1548.64 558.157 1545.87 553.991 1541.9 552.205C1542.28 550.337 1539.43 526.657 1538.53 525.323C1537.22 523.385 1535.51 522.119 1533.15 521.753C1530.55 521.35 1527.15 522.061 1524.56 522.499ZM1353.24 491.497C1357.19 509.787 1381.33 526.13 1396.06 535.714C1399.98 538.267 1403.94 540.733 1408.69 539.874C1410.51 537.978 1411.54 535.966 1411.61 533.278C1411.62 533.131 1411.6 532.983 1411.59 532.835C1411.55 532.687 1411.52 532.538 1411.48 532.391C1409.67 526.411 1400.27 522.192 1400.55 515.81C1402.97 515.533 1403.01 515.893 1404.97 517.2C1412.54 522.245 1419.04 527.048 1427.37 530.894C1428.89 531.596 1430.71 532.234 1431.99 533.343C1432.52 533.812 1433 534.301 1433.45 534.847L1433.1 536.532C1430.32 537.722 1427.69 537.871 1424.88 536.761C1422.74 535.919 1420.96 535.003 1418.66 534.595C1418.12 539.809 1416.94 542.621 1413.44 546.513C1417.14 547.856 1421.14 549.005 1424.25 551.497C1436.65 555.827 1456.29 568.354 1469.39 562.66C1470.45 562.202 1471.92 561.053 1472.28 559.909C1473.15 557.158 1472.02 554.458 1470.7 552.052C1455.36 524.117 1408.73 503.402 1379.54 495.375C1371.34 493.12 1361.79 490.413 1353.24 491.497ZM1733.86 530.499C1719.03 532.938 1660.23 542.314 1651.99 554.274C1651.61 554.84 1651.35 555.425 1651.12 556.065C1651.93 558.316 1652.83 559.134 1655.02 560.198C1663.91 564.512 1685.89 566.64 1695.23 563.383C1701.51 563.413 1706.16 558.298 1711.58 559.977C1723.86 563.785 1757.77 550.827 1769.05 544.8C1772.3 543.064 1777.21 540.43 1778.38 536.67C1778.61 535.945 1777.85 534.85 1777.53 534.157C1768.3 527.611 1745 529.629 1733.86 530.499ZM123.148 746.454C114.201 766.885 105.625 788.416 98.2402 809.459C105.899 812.255 118.447 817.869 126.496 815.284C127.743 813.992 128.481 813.018 129.175 811.355C137.459 792.564 147.272 774.402 156.961 756.311C144.047 754.808 134.925 751.537 123.148 746.454ZM212.428 735.091C209.913 758.134 206.11 780.986 203.49 803.971C210.375 804.632 226.011 807.836 231.588 803.279L232.065 800.75C236.785 780.067 242.752 759.56 246.955 738.781C234.589 739.767 224.238 739.013 212.428 735.091ZM1574.73 472.498C1572.49 475.114 1568.99 475.726 1565.71 475.963C1560.65 476.328 1555.5 475.888 1550.44 475.578C1551.16 478.594 1551.16 482.997 1549.53 485.735C1547.25 489.544 1540.28 489.686 1541.12 494.086C1542.41 500.863 1546.8 507.366 1547.7 514.221C1549.74 529.725 1538.28 537.237 1552.98 553.22L1555.4 554.095L1556.45 553.503C1560.67 551.014 1563.84 546.172 1564.95 541.427C1566.33 535.565 1565.95 528.746 1568.16 523.135C1572.76 511.486 1581.98 505.365 1583.38 491.71C1583.61 489.444 1584.07 487.438 1582.83 485.497C1579.08 487.247 1576.83 488.55 1572.71 487.345L1570.41 484.72C1573.63 481.541 1578.24 484.318 1578.91 476.913C1579.02 475.693 1578.65 474.203 1578.41 473.026C1576.92 472.262 1576.37 472.411 1574.73 472.498ZM128.521 461.606C127.761 465.449 127.091 469.341 126.138 473.14C131.599 481.556 137.334 489.234 144.468 496.318C150.328 502.137 213.783 554.221 217.608 555.156C218.911 555.474 220.241 555.342 221.546 555.122C222.314 554.554 223.312 554.01 223.793 553.181C222.739 551.085 220.679 548.384 221.151 546.096L225.635 544.098C224.029 539.626 204.449 530.825 199.279 526.49C187.636 516.729 163.776 491.279 155.611 479.488C153.641 476.644 152.428 472.652 151.17 469.405C145.382 465.967 135.3 462.399 128.521 461.606ZM1699.23 569.5L1687.25 570.845C1694.53 588.309 1678.07 673.236 1684.14 680.495L1687.23 680.533C1691.07 680.179 1696.42 680.753 1699.97 679.877C1703.86 669.378 1706.92 576.891 1703.71 569.617C1702.11 569.362 1700.84 569.319 1699.23 569.5ZM1485.76 598.499C1485.69 609.583 1480.31 644.198 1473.75 652.367C1484.08 654.72 1493.94 658.54 1504.35 660.642C1506.3 659.761 1506.99 659.879 1507.79 657.785C1511.92 646.934 1518.1 619.583 1517.71 608.479C1517.7 608.228 1517.69 607.976 1517.69 607.725C1511.9 602.212 1493.71 598.843 1485.76 598.499ZM1450.42 593.498C1452.45 602.565 1443.68 638.537 1438.43 646.767C1438.18 647.155 1437.74 647.639 1437.46 647.966C1445.36 648.15 1457.9 647.625 1465.23 650.868C1467.9 649.912 1468.53 650.018 1469.7 647.429C1472.82 640.555 1481.14 604.241 1478.97 597.985C1473.83 593.456 1460.01 592.849 1453.34 593.237C1452.36 593.293 1451.39 593.395 1450.42 593.498ZM1620.75 600.498C1614.5 605.171 1603.22 607.972 1595.54 608.931C1605.64 619.29 1603.22 658.201 1611.17 658.856C1617.7 657.062 1629.24 655.455 1634.71 651.976C1637.49 644.641 1630.38 611.107 1626.95 603.432C1626.38 602.149 1625.62 601.205 1624.48 600.388L1620.75 600.498ZM230.569 318.238C226.452 318.907 219.586 319.098 216.373 321.808C215.004 326.071 213.721 329.748 211.117 333.462L209.176 333.874C206.243 331.315 206.231 327.152 203.234 325.025L202.478 325.382C200.429 331.428 208.02 369.472 209.394 378.342C214.25 377.943 219.825 378.051 224.204 375.752C224.629 375.072 225.467 374.199 225.286 373.408C224.426 369.635 220.485 367.208 217.527 365.074C216.684 363.241 215.474 361.634 215.951 359.635C222.754 359.588 233.296 366.662 239.558 361.204L240.188 359.239C237.297 355.666 231.133 356.533 231.467 350.703C231.563 349.034 232.748 346.201 234.048 345.15C234.882 344.477 235.866 344.722 236.901 344.718C238.609 346.081 240.306 347.44 242.088 348.705C243.953 345.232 242.848 336.901 241.935 333.024C238.833 331.851 236.804 333.927 233.593 332.414C232.779 329.912 230.976 326.437 231.889 324.013C234.562 323.354 238.54 323.278 240.153 321.092C238.943 319.385 237.546 318.405 235.428 318.058C233.937 317.814 232.072 318.101 230.569 318.238ZM248.798 525.694C245.413 529.292 241.907 532.827 238.645 536.533C240.279 542.727 242.217 548.448 238.565 554.413C236.11 558.421 231.264 560.76 226.816 561.764C224.357 562.319 221.722 562.418 219.208 562.552C220.173 571.062 220.841 595.744 227.542 600.635C229.228 601.866 229.941 601.494 231.87 601.188C235.562 598.515 238.072 593.972 239.728 589.777C242.7 575.071 245.959 560.791 259.466 552.032C264.29 548.904 277.283 545.94 279.962 541.965L279.561 540.545C271.816 538.312 261.639 546.443 256.167 536.497C254.033 532.619 252.901 528.008 248.798 525.694ZM1635.33 598.499C1633.52 600.202 1633.12 600.689 1633 603.242C1632.47 614.828 1644.76 642.259 1640.36 650.878C1647.05 650.23 1654.04 649.113 1660.75 649.045C1663.47 648.997 1665.71 649.442 1668.01 647.906C1668.2 640.064 1663.28 604.565 1658.56 598.889C1650.93 597.831 1643 597.531 1635.33 598.499ZM1447.21 674.497C1452.33 681.156 1452.47 697.983 1451.47 706.31C1451.21 708.452 1450.73 710.427 1449.5 712.227C1454.85 712.149 1475.96 713.026 1478.96 709.362C1479.16 709.115 1479.29 708.821 1479.46 708.55C1481.74 706.771 1483.53 703.88 1484.05 700.999C1484.59 698.044 1483.04 695.415 1481.24 693.229C1475.8 686.623 1458.61 675.117 1449.93 674.33C1449.01 674.246 1448.12 674.338 1447.21 674.497ZM324.598 432.793C304.601 446.165 281.771 445.725 259.472 452.458C261.426 457.893 263.13 464.305 265.987 469.292C272.638 471.352 279.994 470.295 286.114 466.939C293.357 462.966 323.491 438.89 326.258 433.554L324.598 432.793ZM1669.61 661.498C1665.1 668.327 1648.15 672.037 1640.6 673.585C1634.9 674.754 1629.19 675.429 1623.39 675.837C1626.78 678.407 1629.65 680.032 1630.24 684.519Q1630.36 685.393 1630.44 686.271C1640.25 691.529 1660.35 690.938 1670.8 687.799C1670.96 687.751 1671.11 687.69 1671.27 687.636C1675.32 682.19 1675.02 670.601 1674.11 664.211C1673.91 662.862 1673.5 662.45 1672.72 661.361L1669.61 661.498ZM1585.32 530.494C1586.88 534.726 1586.92 544.93 1585.19 549.13C1584.98 549.646 1584.73 549.981 1584.42 550.465C1592.73 556.572 1599.6 577.038 1601.02 586.907C1601.14 587.713 1601.09 588.356 1600.89 589.14C1604.52 587.978 1609.54 586.873 1612.52 584.499C1615.17 583.65 1616.95 583.59 1618.65 581.282C1613.85 573.047 1605.57 566.679 1601.1 558.423C1596.89 550.65 1596.74 535.845 1588.96 530.602L1585.32 530.494ZM1438.09 653.499C1437.22 655.627 1437.37 655.588 1438.26 657.732C1450.14 667.931 1476.73 674.403 1492.03 674.646C1492.99 674.116 1493.72 673.899 1494.3 672.946L1497.56 670.594L1497.86 668.606C1492.01 661.366 1458.3 654.979 1448.74 653.93C1445.24 653.546 1441.6 653.333 1438.09 653.499ZM94.1021 815.465C92.855 818.322 90.9739 821.419 91.4297 824.591L92.6477 825.985C93.6681 825.24 94.5067 824.432 95.4024 823.547C99.5959 825.116 103.324 827.574 107.46 829.119C115.554 832.142 127.37 833.69 135.991 833.756C137.279 833.134 138.025 832.687 139.022 831.616C140.504 832.484 142.006 833.309 143.452 834.236C148.307 837.349 159.831 836.131 165.799 836.82C168.349 836.565 170.31 836.877 172.239 835.097C166.854 828.076 127.258 824.778 116.562 822.568C108.968 820.998 101.146 818.728 94.1021 815.465ZM201.97 810.915C202.44 813.694 202.332 815.58 204.744 817.467C214.335 824.969 268.558 821.6 281.033 819.667L282.669 818.354L282.549 816.38C273.133 815.423 223.272 813.289 219.391 811.344L217.366 812.575L220.837 815.374L220.455 816.228C213.693 813.873 209.277 811.474 201.97 810.915ZM231.49 387.698C229.54 399.552 226.908 463.458 228.404 472.747L229.472 472.858L231.973 469.379L238.868 459.656Q236.589 439.611 235.356 419.475C234.835 410.707 235.215 400.572 233.567 392.012C233.219 390.204 232.784 389.015 231.49 387.698ZM1663.54 570.499C1660.41 574.926 1657.5 579.297 1653.08 582.539C1659.09 581.162 1664.53 579.566 1670.17 577.054C1669.84 580.933 1668.63 583.574 1665.64 586.154C1664.3 587.309 1662.83 588.444 1661.29 589.322C1654.27 586.899 1638.86 584.497 1632.13 587.896C1631.41 588.255 1630.79 588.647 1630.15 589.113C1629.88 590.076 1629.48 591.114 1629.5 592.112C1644.43 592.05 1662.03 589.172 1675.76 596.293C1679.06 591.776 1680.13 580.049 1679.44 574.528C1679.29 573.307 1678.83 572.162 1678.24 571.089C1673.41 570.807 1668.37 570.211 1663.54 570.499ZM152.263 567.392C148.458 572.26 145.168 577.566 145.958 584.023C146.633 589.533 150.771 593.93 155.046 597.1C159.616 600.49 167.198 604.45 173.092 603.588C175.444 603.243 175.865 602.542 177.513 600.942C177.575 599.541 177.735 598.242 177.391 596.871C175.902 595.351 171.433 589.51 169.706 589.466C163.7 589.314 160.099 595.862 154.35 590.75C154.806 588.507 155.193 588.224 157.095 586.957C159.423 585.407 162.486 584.673 165.107 583.706C161.506 579.075 157.073 570.239 152.263 567.392ZM412.476 386.088C396.727 390.045 380.739 393.765 366.031 400.849C368.639 404.86 371.516 410.736 375.655 413.262C386.455 410.06 387.331 400.251 396.266 396C403.753 392.438 410.587 398.682 417.928 391.921L418.989 389.313C418.203 387.575 418.182 386.984 416.299 386.273C415.076 385.812 413.751 385.982 412.476 386.088ZM1454.04 583.5L1452.27 585.078L1452.57 586.554C1458.12 589.529 1467.53 589.339 1473.85 590.08C1489.09 591.869 1521.23 596.027 1532.13 606.978L1535.19 606.084L1535.53 603.486C1524.25 591.232 1483 584.11 1466.47 583.441C1462.31 583.273 1458.19 583.193 1454.04 583.5ZM1580.81 631.499C1566.46 636.071 1549.67 635.235 1534.85 634.061C1534.89 634.211 1534.93 634.36 1534.97 634.511C1535.81 638.02 1533.89 641.028 1535.62 644.144C1537.81 644.551 1539.12 644.363 1541.23 643.638C1553.04 642.042 1573.22 638.534 1583.39 646.443C1584.13 647.022 1584.59 647.557 1585.17 648.296C1587.1 644.123 1586.75 638.684 1585.22 634.429C1584.62 632.762 1584.51 632.441 1582.94 631.526L1580.81 631.499ZM1522.66 611.497C1526.23 619.74 1511.92 650.253 1518.34 654.045C1520.26 653.509 1521.1 653.125 1522.41 651.6C1523.11 651.068 1524.72 650.179 1525.19 649.513C1528.29 645.131 1530.81 625.745 1531.68 619.707Q1532.03 617.202 1532.27 614.685C1530.35 612.622 1528.07 611.415 1525.14 611.393C1524.31 611.387 1523.49 611.43 1522.66 611.497ZM132.754 446.696C131.911 449.885 130.964 451.804 131.828 455.025C138.016 461.694 151.002 463 159.662 464.914C160.376 462.527 160.18 460.252 158.954 458.066C155.692 452.25 146.623 449.468 140.462 447.959C137.904 447.333 135.397 446.75 132.754 446.696ZM1649.16 656.5C1639.9 658.073 1625.51 658.915 1617.77 664.164L1617.45 665.833C1619.74 667.643 1621.75 668.351 1624.67 668.019C1626.2 667.846 1627.72 667.556 1629.23 667.255C1637.5 666.403 1658.19 664.18 1663.52 657.375C1663.72 657.116 1663.9 656.837 1664.09 656.568C1659.04 656.244 1654.22 656.057 1649.16 656.5ZM233.863 501.582C225.03 511.949 217.027 518.711 203.395 521.781C208.485 526.542 214.101 530.579 220.51 533.398L226.515 535.473L227.496 534.687C224.779 531.985 220.947 529.058 220.839 524.903C220.746 521.309 223.544 517.802 226.037 515.475C229.594 512.154 235.065 509.083 237.514 504.921C236.436 502.865 235.824 502.709 233.863 501.582ZM1573.89 620.503C1565.44 621.544 1540.96 619.237 1536.44 624.943C1537.33 626.117 1538.44 627.514 1539.97 627.813C1540.86 627.985 1541.85 627.899 1542.75 627.848C1551.32 627.834 1577.35 630.052 1583.22 623.767C1583.8 623.144 1583.67 621.54 1583.74 620.677C1580.83 619.214 1577.01 620.15 1573.89 620.503ZM1462.27 722.5C1464.45 730.474 1481.9 738.298 1486.14 746.247C1488.62 740.548 1483.87 729.97 1481.68 724.231C1481.27 723.173 1480.72 722.513 1479.98 721.684C1474.11 721.823 1468.09 721.691 1462.27 722.5ZM1648.44 698.5C1644.49 699.086 1643.22 698.958 1640.13 701.631L1640.99 703.152L1640.4 702.763C1642.45 705.228 1646.11 705.907 1649.2 706.193C1653.38 706.58 1659.04 706.314 1663.16 705.501C1666.22 705.064 1669.76 705.043 1672.16 702.956L1673.28 700.781C1672.74 699.443 1672.83 699.109 1671.46 698.556C1665.47 696.123 1654.81 698.077 1648.44 698.5ZM185.223 565.535C190.735 567.199 195.497 571.422 200.033 574.837C202.748 570.899 205.291 566.868 207.831 562.817C208.64 560.494 208.913 560.117 208.245 557.793C201.808 556.042 192.459 563.438 185.943 565.333L185.223 565.535ZM1667.7 601.499C1668.78 612.851 1671.32 624.384 1673.85 635.501C1676.85 629.564 1677.84 607.559 1675.78 601.217C1673.07 600.446 1670.42 601.063 1667.7 601.499ZM192.414 545.988C186.42 549.441 181.184 553.596 176.153 558.316C179.018 561.111 181.851 563.378 185.223 565.535C186.125 555.735 193.947 557.616 197.253 550.639C196.089 548.037 194.741 547.512 192.414 545.988ZM145.985 507.442C145.176 513.122 143.186 521.22 144.914 526.632L146.162 527.164C147.794 526.043 148.675 525.09 149.669 523.379C151.949 520.517 154.158 517.497 156.62 514.796L145.985 507.442ZM257.882 469.541C258.092 475.799 259.219 481.393 260.732 487.453C263.537 485.644 266.437 483.911 268.998 481.765L271.03 479.141C266.521 476.029 262.266 472.626 257.882 469.541Z"/>
	<path fill="#040402" transform="matrix(0.48877 0 0 0.489258 -6.10352e-05 0)" d="M229.464 570.407C230.006 570.547 230.553 570.67 231.082 570.85C233.603 571.707 235.009 572.877 236.1 575.285C238.443 580.454 235.809 588.51 233.844 593.475C231.874 593.377 231.962 593.124 230.676 591.747C229.31 585.625 227.032 576.342 229.464 570.407Z"/>
	<path fill="#040402" fill-opacity="0.96078432" transform="matrix(0.48877 0 0 0.489258 -6.10352e-05 0)" d="M139.159 608.541L144.388 608.184Q143.292 630.028 142.482 651.884C142.031 667.981 142.895 684.213 138.954 699.962C135.469 713.893 128.386 726.949 124.038 740.665C121.782 738.712 123.008 736.359 120.485 734.002C120.641 728.328 133.286 703.691 135.103 692.116C139.385 664.833 133.95 635.966 139.159 608.541Z"/>
</svg>
